<mxfile host="Electron" modified="2024-01-01T16:15:35.094Z" agent="Mozilla/5.0 (Windows NT 10.0; Win64; x64) AppleWebKit/537.36 (KHTML, like Gecko) draw.io/22.1.16 Chrome/120.0.6099.109 Electron/28.1.0 Safari/537.36" etag="VhDNsK58I9ghCDFDxUnj" version="22.1.16" type="device">
  <diagram id="R2lEEEUBdFMjLlhIrx00" name="Page-1">
    <mxGraphModel dx="1219" dy="1822" grid="1" gridSize="10" guides="1" tooltips="1" connect="1" arrows="1" fold="1" page="1" pageScale="1" pageWidth="850" pageHeight="1100" math="0" shadow="0" extFonts="Permanent Marker^https://fonts.googleapis.com/css?family=Permanent+Marker">
      <root>
        <mxCell id="0" />
        <mxCell id="1" parent="0" />
        <mxCell id="R-5eVReeRhAWZTMctB-V-72" style="edgeStyle=orthogonalEdgeStyle;rounded=0;orthogonalLoop=1;jettySize=auto;html=1;exitX=0;exitY=0.25;exitDx=0;exitDy=0;startArrow=ERmandOne;startFill=0;endArrow=ERzeroToMany;endFill=0;entryX=1;entryY=0.5;entryDx=0;entryDy=0;" parent="1" source="R-5eVReeRhAWZTMctB-V-6" target="R-5eVReeRhAWZTMctB-V-30" edge="1">
          <mxGeometry relative="1" as="geometry">
            <mxPoint x="585.0000000000002" y="-747.3" as="sourcePoint" />
            <mxPoint x="410" y="-870" as="targetPoint" />
            <Array as="points">
              <mxPoint x="480" y="-730" />
              <mxPoint x="480" y="-775" />
            </Array>
          </mxGeometry>
        </mxCell>
        <mxCell id="z7p7CJNXkUByptRr078z-9" value="Is Obtained From" style="edgeLabel;html=1;align=center;verticalAlign=middle;resizable=0;points=[];" parent="R-5eVReeRhAWZTMctB-V-72" vertex="1" connectable="0">
          <mxGeometry x="-0.6579" y="-1" relative="1" as="geometry">
            <mxPoint x="-25" as="offset" />
          </mxGeometry>
        </mxCell>
        <mxCell id="z7p7CJNXkUByptRr078z-10" value="Made" style="edgeLabel;html=1;align=center;verticalAlign=middle;resizable=0;points=[];" parent="R-5eVReeRhAWZTMctB-V-72" vertex="1" connectable="0">
          <mxGeometry x="0.7404" relative="1" as="geometry">
            <mxPoint x="-1" as="offset" />
          </mxGeometry>
        </mxCell>
        <mxCell id="R-5eVReeRhAWZTMctB-V-6" value="Member" style="swimlane;childLayout=stackLayout;horizontal=1;startSize=50;horizontalStack=0;rounded=0;fontSize=14;fontStyle=0;strokeWidth=2;resizeParent=0;resizeLast=1;shadow=0;dashed=0;align=center;arcSize=4;whiteSpace=wrap;html=1;" parent="1" vertex="1">
          <mxGeometry x="600" y="-760" width="160" height="120" as="geometry" />
        </mxCell>
        <mxCell id="R-5eVReeRhAWZTMctB-V-7" value="&lt;div&gt;&lt;b&gt;&lt;u&gt;MemberID (Primary Key)&lt;/u&gt;&lt;/b&gt;&lt;/div&gt;&lt;div&gt;&lt;div style=&quot;border-color: var(--border-color);&quot;&gt;[Membership start date]&lt;/div&gt;&lt;div style=&quot;border-color: var(--border-color);&quot;&gt;[Membership end date]&lt;/div&gt;&lt;/div&gt;&lt;div style=&quot;border-color: var(--border-color);&quot;&gt;[RemainingTime]&lt;br&gt;&lt;/div&gt;" style="align=left;strokeColor=none;fillColor=none;spacingLeft=4;fontSize=12;verticalAlign=top;resizable=0;rotatable=0;part=1;html=1;" parent="R-5eVReeRhAWZTMctB-V-6" vertex="1">
          <mxGeometry y="50" width="160" height="70" as="geometry" />
        </mxCell>
        <mxCell id="R-5eVReeRhAWZTMctB-V-9" value="Personal Trainer" style="swimlane;childLayout=stackLayout;horizontal=1;startSize=50;horizontalStack=0;rounded=0;fontSize=14;fontStyle=0;strokeWidth=2;resizeParent=0;resizeLast=1;shadow=0;dashed=0;align=center;arcSize=4;whiteSpace=wrap;html=1;" parent="1" vertex="1">
          <mxGeometry x="760" y="-585" width="160" height="90" as="geometry" />
        </mxCell>
        <mxCell id="R-5eVReeRhAWZTMctB-V-10" value="&lt;b style=&quot;border-color: var(--border-color);&quot;&gt;&lt;u style=&quot;border-color: var(--border-color);&quot;&gt;PTID&lt;/u&gt;&lt;/b&gt;&lt;span style=&quot;border-color: var(--border-color);&quot;&gt;&lt;span style=&quot;border-color: var(--border-color);&quot;&gt;&lt;b style=&quot;text-decoration-line: underline;&quot;&gt;&amp;nbsp;(Primary Key)&lt;/b&gt;&lt;br&gt;Specialization&lt;br&gt;&lt;/span&gt;&lt;/span&gt;" style="align=left;strokeColor=none;fillColor=none;spacingLeft=4;fontSize=12;verticalAlign=top;resizable=0;rotatable=0;part=1;html=1;" parent="R-5eVReeRhAWZTMctB-V-9" vertex="1">
          <mxGeometry y="50" width="160" height="40" as="geometry" />
        </mxCell>
        <mxCell id="R-5eVReeRhAWZTMctB-V-11" value="Instructor" style="swimlane;childLayout=stackLayout;horizontal=1;startSize=50;horizontalStack=0;rounded=0;fontSize=14;fontStyle=0;strokeWidth=2;resizeParent=0;resizeLast=1;shadow=0;dashed=0;align=center;arcSize=4;whiteSpace=wrap;html=1;" parent="1" vertex="1">
          <mxGeometry x="1000" y="-585" width="160" height="80" as="geometry" />
        </mxCell>
        <mxCell id="R-5eVReeRhAWZTMctB-V-12" value="&lt;div&gt;&lt;b style=&quot;border-color: var(--border-color);&quot;&gt;&lt;u style=&quot;border-color: var(--border-color);&quot;&gt;InsID&lt;/u&gt;&lt;/b&gt;&lt;b style=&quot;border-color: var(--border-color);&quot;&gt;&lt;u style=&quot;border-color: var(--border-color);&quot;&gt;&amp;nbsp;(Primary Key)&lt;/u&gt;&lt;/b&gt;&lt;br style=&quot;border-color: var(--border-color);&quot;&gt;&lt;/div&gt;" style="align=left;strokeColor=none;fillColor=none;spacingLeft=4;fontSize=12;verticalAlign=top;resizable=0;rotatable=0;part=1;html=1;" parent="R-5eVReeRhAWZTMctB-V-11" vertex="1">
          <mxGeometry y="50" width="160" height="30" as="geometry" />
        </mxCell>
        <mxCell id="R-5eVReeRhAWZTMctB-V-14" value="&lt;b&gt;D&lt;/b&gt;" style="ellipse;whiteSpace=wrap;html=1;aspect=fixed;" parent="1" vertex="1">
          <mxGeometry x="800" y="-840" width="40" height="40" as="geometry" />
        </mxCell>
        <mxCell id="R-5eVReeRhAWZTMctB-V-22" value="" style="endArrow=none;html=1;rounded=0;exitX=0.5;exitY=0;exitDx=0;exitDy=0;entryX=0;entryY=1;entryDx=0;entryDy=0;" parent="1" source="R-5eVReeRhAWZTMctB-V-6" target="R-5eVReeRhAWZTMctB-V-14" edge="1">
          <mxGeometry relative="1" as="geometry">
            <mxPoint x="870" y="-544.14" as="sourcePoint" />
            <mxPoint x="665.8578643762689" y="-769.9978643762689" as="targetPoint" />
          </mxGeometry>
        </mxCell>
        <mxCell id="R-5eVReeRhAWZTMctB-V-24" value="" style="endArrow=none;html=1;rounded=0;exitX=1;exitY=1;exitDx=0;exitDy=0;entryX=0.5;entryY=0;entryDx=0;entryDy=0;" parent="1" source="R-5eVReeRhAWZTMctB-V-14" target="R-5eVReeRhAWZTMctB-V-43" edge="1">
          <mxGeometry relative="1" as="geometry">
            <mxPoint x="690" y="-760" as="sourcePoint" />
            <mxPoint x="690" y="-660" as="targetPoint" />
          </mxGeometry>
        </mxCell>
        <mxCell id="R-5eVReeRhAWZTMctB-V-28" value="" style="endArrow=none;html=1;rounded=0;exitX=0.5;exitY=1;exitDx=0;exitDy=0;entryX=0.5;entryY=0;entryDx=0;entryDy=0;shape=link;" parent="1" source="R-5eVReeRhAWZTMctB-V-42" target="R-5eVReeRhAWZTMctB-V-14" edge="1">
          <mxGeometry relative="1" as="geometry">
            <mxPoint x="700" y="-870" as="sourcePoint" />
            <mxPoint x="1050" y="-550" as="targetPoint" />
          </mxGeometry>
        </mxCell>
        <mxCell id="R-5eVReeRhAWZTMctB-V-29" value="Body Measurement" style="swimlane;childLayout=stackLayout;horizontal=1;startSize=50;horizontalStack=0;rounded=0;fontSize=14;fontStyle=0;strokeWidth=2;resizeParent=0;resizeLast=1;shadow=0;dashed=0;align=center;arcSize=4;whiteSpace=wrap;html=1;" parent="1" vertex="1">
          <mxGeometry x="200" y="-880" width="180" height="160" as="geometry" />
        </mxCell>
        <mxCell id="R-5eVReeRhAWZTMctB-V-30" value="&lt;div&gt;&lt;b&gt;&lt;u&gt;MeasurementID (Primary Key)&lt;/u&gt;&lt;/b&gt;&lt;/div&gt;&lt;div&gt;MeasurementDate&lt;/div&gt;&lt;div&gt;Height&lt;/div&gt;&lt;div&gt;Weight&lt;/div&gt;&lt;div&gt;[BMI]&lt;/div&gt;" style="align=left;strokeColor=none;fillColor=none;spacingLeft=4;fontSize=12;verticalAlign=top;resizable=0;rotatable=0;part=1;html=1;" parent="R-5eVReeRhAWZTMctB-V-29" vertex="1">
          <mxGeometry y="50" width="180" height="110" as="geometry" />
        </mxCell>
        <mxCell id="R-5eVReeRhAWZTMctB-V-33" value="Membership Payment" style="swimlane;childLayout=stackLayout;horizontal=1;startSize=50;horizontalStack=0;rounded=0;fontSize=14;fontStyle=0;strokeWidth=2;resizeParent=0;resizeLast=1;shadow=0;dashed=0;align=center;arcSize=4;whiteSpace=wrap;html=1;" parent="1" vertex="1">
          <mxGeometry x="920" y="-320" width="160" height="160" as="geometry" />
        </mxCell>
        <mxCell id="R-5eVReeRhAWZTMctB-V-35" value="" style="swimlane;childLayout=stackLayout;horizontal=1;startSize=50;horizontalStack=0;rounded=0;fontSize=14;fontStyle=0;strokeWidth=2;resizeParent=0;resizeLast=1;shadow=0;dashed=0;align=center;arcSize=4;whiteSpace=wrap;html=1;" parent="R-5eVReeRhAWZTMctB-V-33" vertex="1">
          <mxGeometry y="50" width="160" as="geometry" />
        </mxCell>
        <mxCell id="R-5eVReeRhAWZTMctB-V-34" value="&lt;div&gt;&lt;b&gt;&lt;u&gt;PaymentID (Primary Key)&lt;/u&gt;&lt;/b&gt;&lt;/div&gt;&lt;div&gt;&lt;div style=&quot;border-color: var(--border-color);&quot;&gt;&lt;span style=&quot;background-color: initial;&quot;&gt;Amount&lt;/span&gt;&lt;br&gt;&lt;/div&gt;&lt;/div&gt;&lt;div&gt;PaymentType&lt;/div&gt;&lt;div&gt;PaymentDate&lt;/div&gt;" style="align=left;strokeColor=none;fillColor=none;spacingLeft=4;fontSize=12;verticalAlign=top;resizable=0;rotatable=0;part=1;html=1;" parent="R-5eVReeRhAWZTMctB-V-33" vertex="1">
          <mxGeometry y="50" width="160" height="110" as="geometry" />
        </mxCell>
        <mxCell id="R-5eVReeRhAWZTMctB-V-37" value="Membership Plan" style="swimlane;childLayout=stackLayout;horizontal=1;startSize=50;horizontalStack=0;rounded=0;fontSize=14;fontStyle=0;strokeWidth=2;resizeParent=0;resizeLast=1;shadow=0;dashed=0;align=center;arcSize=4;whiteSpace=wrap;html=1;" parent="1" vertex="1">
          <mxGeometry x="200" y="-670" width="160" height="130" as="geometry" />
        </mxCell>
        <mxCell id="R-5eVReeRhAWZTMctB-V-38" value="&lt;b&gt;&lt;u&gt;PlanID (Primary Key)&lt;br&gt;&lt;/u&gt;&lt;/b&gt;PlanName&lt;br&gt;Description&lt;br&gt;PlanFee&lt;br&gt;PlanDuration" style="align=left;strokeColor=none;fillColor=none;spacingLeft=4;fontSize=12;verticalAlign=top;resizable=0;rotatable=0;part=1;html=1;" parent="R-5eVReeRhAWZTMctB-V-37" vertex="1">
          <mxGeometry y="50" width="160" height="80" as="geometry" />
        </mxCell>
        <mxCell id="R-5eVReeRhAWZTMctB-V-40" style="edgeStyle=orthogonalEdgeStyle;rounded=0;orthogonalLoop=1;jettySize=auto;html=1;endArrow=ERoneToMany;endFill=0;startArrow=ERmandOne;startFill=0;exitX=0.25;exitY=1;exitDx=0;exitDy=0;entryX=0.5;entryY=0;entryDx=0;entryDy=0;" parent="1" source="R-5eVReeRhAWZTMctB-V-7" target="R-5eVReeRhAWZTMctB-V-33" edge="1">
          <mxGeometry relative="1" as="geometry">
            <Array as="points">
              <mxPoint x="640" y="-360" />
              <mxPoint x="1000" y="-360" />
            </Array>
            <mxPoint x="640" y="-630" as="sourcePoint" />
            <mxPoint x="1000" y="-320" as="targetPoint" />
          </mxGeometry>
        </mxCell>
        <mxCell id="R-5eVReeRhAWZTMctB-V-102" value="Paid" style="edgeLabel;html=1;align=center;verticalAlign=middle;resizable=0;points=[];" parent="R-5eVReeRhAWZTMctB-V-40" vertex="1" connectable="0">
          <mxGeometry x="0.6334" y="2" relative="1" as="geometry">
            <mxPoint x="45" as="offset" />
          </mxGeometry>
        </mxCell>
        <mxCell id="R-5eVReeRhAWZTMctB-V-103" value="Is Paid by" style="edgeLabel;html=1;align=center;verticalAlign=middle;resizable=0;points=[];" parent="R-5eVReeRhAWZTMctB-V-40" vertex="1" connectable="0">
          <mxGeometry x="-0.6527" relative="1" as="geometry">
            <mxPoint y="-49" as="offset" />
          </mxGeometry>
        </mxCell>
        <mxCell id="R-5eVReeRhAWZTMctB-V-41" value="Person" style="swimlane;childLayout=stackLayout;horizontal=1;startSize=50;horizontalStack=0;rounded=0;fontSize=14;fontStyle=0;strokeWidth=2;resizeParent=0;resizeLast=1;shadow=0;dashed=0;align=center;arcSize=4;whiteSpace=wrap;html=1;" parent="1" vertex="1">
          <mxGeometry x="740" y="-1080" width="160" height="180" as="geometry" />
        </mxCell>
        <mxCell id="R-5eVReeRhAWZTMctB-V-42" value="&lt;div&gt;&lt;u&gt;&lt;b&gt;Ssn (Primary Key)&lt;/b&gt;&lt;/u&gt;&lt;/div&gt;&lt;div&gt;FirstName&lt;/div&gt;&lt;div&gt;Lastname&lt;/div&gt;&lt;div&gt;Gender&lt;/div&gt;&lt;div&gt;[Age]&lt;/div&gt;&lt;div&gt;BirthDate&lt;/div&gt;&lt;div&gt;Address(City,District)&lt;/div&gt;&lt;div&gt;&lt;span style=&quot;background-color: initial;&quot;&gt;PhoneNumber&lt;/span&gt;&lt;br&gt;&lt;/div&gt;&lt;div&gt;&lt;br&gt;&lt;/div&gt;" style="align=left;strokeColor=none;fillColor=none;spacingLeft=4;fontSize=12;verticalAlign=top;resizable=0;rotatable=0;part=1;html=1;" parent="R-5eVReeRhAWZTMctB-V-41" vertex="1">
          <mxGeometry y="50" width="160" height="130" as="geometry" />
        </mxCell>
        <mxCell id="W-gK8q5gHZFt6oDhmHY_-1" style="edgeStyle=orthogonalEdgeStyle;rounded=0;orthogonalLoop=1;jettySize=auto;html=1;exitX=1;exitY=0.25;exitDx=0;exitDy=0;endArrow=ERoneToMany;endFill=0;startArrow=ERmandOne;startFill=0;entryX=0.5;entryY=0;entryDx=0;entryDy=0;" parent="1" source="R-5eVReeRhAWZTMctB-V-43" target="xoYiwrnEaypF7YbTbB9d-1" edge="1">
          <mxGeometry relative="1" as="geometry">
            <Array as="points">
              <mxPoint x="1400" y="-735" />
            </Array>
            <mxPoint x="1310" y="-740" as="targetPoint" />
          </mxGeometry>
        </mxCell>
        <mxCell id="z7p7CJNXkUByptRr078z-15" value="Is Adjusted For" style="edgeLabel;html=1;align=center;verticalAlign=middle;resizable=0;points=[];" parent="W-gK8q5gHZFt6oDhmHY_-1" vertex="1" connectable="0">
          <mxGeometry x="-0.8885" y="2" relative="1" as="geometry">
            <mxPoint x="49" y="2" as="offset" />
          </mxGeometry>
        </mxCell>
        <mxCell id="z7p7CJNXkUByptRr078z-16" value="Gets Paid" style="edgeLabel;html=1;align=center;verticalAlign=middle;resizable=0;points=[];" parent="W-gK8q5gHZFt6oDhmHY_-1" vertex="1" connectable="0">
          <mxGeometry x="0.9115" y="-1" relative="1" as="geometry">
            <mxPoint x="-59" y="-3" as="offset" />
          </mxGeometry>
        </mxCell>
        <mxCell id="R-5eVReeRhAWZTMctB-V-43" value="Staff" style="swimlane;childLayout=stackLayout;horizontal=1;startSize=40;horizontalStack=0;rounded=0;fontSize=14;fontStyle=0;strokeWidth=2;resizeParent=0;resizeLast=1;shadow=0;dashed=0;align=center;arcSize=4;whiteSpace=wrap;html=1;" parent="1" vertex="1">
          <mxGeometry x="880" y="-760" width="160" height="90" as="geometry">
            <mxRectangle x="560" y="-705" width="70" height="50" as="alternateBounds" />
          </mxGeometry>
        </mxCell>
        <mxCell id="R-5eVReeRhAWZTMctB-V-122" value="&lt;u style=&quot;&quot;&gt;&lt;b style=&quot;&quot;&gt;StaffID (Primary Key)&lt;br&gt;&lt;/b&gt;&lt;/u&gt;SalaryAmount&lt;br&gt;StartDate" style="text;html=1;align=left;verticalAlign=middle;resizable=0;points=[];autosize=1;strokeColor=none;fillColor=none;" parent="R-5eVReeRhAWZTMctB-V-43" vertex="1">
          <mxGeometry y="40" width="160" height="50" as="geometry" />
        </mxCell>
        <mxCell id="R-5eVReeRhAWZTMctB-V-46" value="" style="endArrow=none;html=1;rounded=0;exitX=0.5;exitY=0;exitDx=0;exitDy=0;entryX=0;entryY=1;entryDx=0;entryDy=0;" parent="1" source="R-5eVReeRhAWZTMctB-V-9" target="R-5eVReeRhAWZTMctB-V-48" edge="1">
          <mxGeometry relative="1" as="geometry">
            <mxPoint x="760" y="-815" as="sourcePoint" />
            <mxPoint x="930" y="-625" as="targetPoint" />
          </mxGeometry>
        </mxCell>
        <mxCell id="R-5eVReeRhAWZTMctB-V-47" value="" style="endArrow=none;html=1;rounded=0;exitX=0.5;exitY=0;exitDx=0;exitDy=0;entryX=1;entryY=1;entryDx=0;entryDy=0;" parent="1" source="R-5eVReeRhAWZTMctB-V-11" target="R-5eVReeRhAWZTMctB-V-48" edge="1">
          <mxGeometry relative="1" as="geometry">
            <mxPoint x="760" y="-815" as="sourcePoint" />
            <mxPoint x="1000" y="-615" as="targetPoint" />
          </mxGeometry>
        </mxCell>
        <mxCell id="R-5eVReeRhAWZTMctB-V-48" value="&lt;b&gt;O&lt;/b&gt;" style="ellipse;whiteSpace=wrap;html=1;aspect=fixed;" parent="1" vertex="1">
          <mxGeometry x="940" y="-650" width="40" height="40" as="geometry" />
        </mxCell>
        <mxCell id="R-5eVReeRhAWZTMctB-V-49" value="" style="endArrow=none;html=1;rounded=0;entryX=0.5;entryY=0;entryDx=0;entryDy=0;shape=link;exitX=0.5;exitY=1;exitDx=0;exitDy=0;" parent="1" source="R-5eVReeRhAWZTMctB-V-43" target="R-5eVReeRhAWZTMctB-V-48" edge="1">
          <mxGeometry relative="1" as="geometry">
            <mxPoint x="960" y="-685" as="sourcePoint" />
            <mxPoint x="1310" y="-355" as="targetPoint" />
          </mxGeometry>
        </mxCell>
        <mxCell id="R-5eVReeRhAWZTMctB-V-54" value="Attendance" style="swimlane;childLayout=stackLayout;horizontal=1;startSize=50;horizontalStack=0;rounded=1;fontSize=14;fontStyle=0;strokeWidth=2;resizeParent=0;resizeLast=1;shadow=0;dashed=0;align=center;arcSize=4;whiteSpace=wrap;html=1;" parent="1" vertex="1">
          <mxGeometry x="760" y="-480" width="200" height="90" as="geometry" />
        </mxCell>
        <mxCell id="R-5eVReeRhAWZTMctB-V-55" value="&lt;div&gt;&lt;b&gt;&lt;u&gt;AttendanceID (Primary Key)&lt;/u&gt;&lt;/b&gt;&lt;/div&gt;&lt;div&gt;Attendance date&lt;/div&gt;" style="align=left;strokeColor=none;fillColor=none;spacingLeft=4;fontSize=12;verticalAlign=top;resizable=0;rotatable=0;part=1;html=1;" parent="R-5eVReeRhAWZTMctB-V-54" vertex="1">
          <mxGeometry y="50" width="200" height="40" as="geometry" />
        </mxCell>
        <mxCell id="R-5eVReeRhAWZTMctB-V-57" value="Class" style="swimlane;childLayout=stackLayout;horizontal=1;startSize=50;horizontalStack=0;rounded=0;fontSize=14;fontStyle=0;strokeWidth=2;resizeParent=0;resizeLast=1;shadow=0;dashed=0;align=center;arcSize=4;whiteSpace=wrap;html=1;" parent="1" vertex="1">
          <mxGeometry x="1200" y="-520" width="160" height="130" as="geometry" />
        </mxCell>
        <mxCell id="R-5eVReeRhAWZTMctB-V-58" value="&lt;div&gt;&lt;b&gt;&lt;u&gt;&lt;span style=&quot;background-color: initial;&quot;&gt;ClassID (Primary Key)&lt;/span&gt;&lt;/u&gt;&lt;/b&gt;&lt;/div&gt;&lt;div&gt;&lt;span style=&quot;background-color: initial;&quot;&gt;ClassName&lt;/span&gt;&lt;/div&gt;&lt;div&gt;&lt;span style=&quot;background-color: initial;&quot;&gt;Max Participants&lt;/span&gt;&lt;br&gt;&lt;/div&gt;&lt;div&gt;ClassStart&lt;/div&gt;&lt;div&gt;ClassEnd&lt;/div&gt;&lt;div&gt;&lt;br&gt;&lt;/div&gt;" style="align=left;strokeColor=none;fillColor=none;spacingLeft=4;fontSize=12;verticalAlign=top;resizable=0;rotatable=0;part=1;html=1;" parent="R-5eVReeRhAWZTMctB-V-57" vertex="1">
          <mxGeometry y="50" width="160" height="80" as="geometry" />
        </mxCell>
        <mxCell id="R-5eVReeRhAWZTMctB-V-61" value="Workout" style="swimlane;childLayout=stackLayout;horizontal=1;startSize=50;horizontalStack=0;rounded=0;fontSize=14;fontStyle=0;strokeWidth=2;resizeParent=0;resizeLast=1;shadow=0;dashed=0;align=center;arcSize=4;whiteSpace=wrap;html=1;" parent="1" vertex="1">
          <mxGeometry x="400" y="-600" width="160" height="120" as="geometry" />
        </mxCell>
        <mxCell id="R-5eVReeRhAWZTMctB-V-62" value="&lt;div&gt;&lt;b&gt;&lt;u&gt;WorkoutID (Primary Key)&lt;/u&gt;&lt;/b&gt;&lt;/div&gt;&lt;div&gt;WorkoutName&lt;br&gt;&lt;/div&gt;&lt;div&gt;Description&lt;/div&gt;&lt;div&gt;Duration&lt;/div&gt;" style="align=left;strokeColor=none;fillColor=none;spacingLeft=4;fontSize=12;verticalAlign=top;resizable=0;rotatable=0;part=1;html=1;" parent="R-5eVReeRhAWZTMctB-V-61" vertex="1">
          <mxGeometry y="50" width="160" height="70" as="geometry" />
        </mxCell>
        <mxCell id="R-5eVReeRhAWZTMctB-V-74" value="Equipment" style="swimlane;childLayout=stackLayout;horizontal=1;startSize=50;horizontalStack=0;rounded=0;fontSize=14;fontStyle=0;strokeWidth=2;resizeParent=0;resizeLast=1;shadow=0;dashed=0;align=center;arcSize=4;whiteSpace=wrap;html=1;" parent="1" vertex="1">
          <mxGeometry x="380" y="-320" width="200" height="120" as="geometry" />
        </mxCell>
        <mxCell id="R-5eVReeRhAWZTMctB-V-75" value="&lt;div&gt;&lt;b&gt;&lt;u&gt;EquipmentID (Primary Key)&lt;/u&gt;&lt;/b&gt;&lt;/div&gt;&lt;div&gt;EquipmentName&lt;/div&gt;&lt;div&gt;Condition&lt;/div&gt;" style="align=left;strokeColor=none;fillColor=none;spacingLeft=4;fontSize=12;verticalAlign=top;resizable=0;rotatable=0;part=1;html=1;" parent="R-5eVReeRhAWZTMctB-V-74" vertex="1">
          <mxGeometry y="50" width="200" height="70" as="geometry" />
        </mxCell>
        <mxCell id="R-5eVReeRhAWZTMctB-V-78" value="Maintenance" style="swimlane;childLayout=stackLayout;horizontal=1;startSize=50;horizontalStack=0;rounded=0;fontSize=14;fontStyle=0;strokeWidth=2;resizeParent=0;resizeLast=1;shadow=0;dashed=0;align=center;arcSize=4;whiteSpace=wrap;html=1;" parent="1" vertex="1">
          <mxGeometry x="640" y="-320" width="200" height="130" as="geometry" />
        </mxCell>
        <mxCell id="R-5eVReeRhAWZTMctB-V-79" value="&lt;div&gt;&lt;b&gt;&lt;u&gt;MaintenanceID (Primary Key)&lt;/u&gt;&lt;/b&gt;&lt;/div&gt;&lt;div&gt;&lt;span style=&quot;background-color: initial;&quot;&gt;MaintenanceDate&lt;/span&gt;&lt;/div&gt;&lt;div&gt;Cost&lt;/div&gt;" style="align=left;strokeColor=none;fillColor=none;spacingLeft=4;fontSize=12;verticalAlign=top;resizable=0;rotatable=0;part=1;html=1;" parent="R-5eVReeRhAWZTMctB-V-78" vertex="1">
          <mxGeometry y="50" width="200" height="80" as="geometry" />
        </mxCell>
        <mxCell id="R-5eVReeRhAWZTMctB-V-135" style="edgeStyle=orthogonalEdgeStyle;rounded=0;orthogonalLoop=1;jettySize=auto;html=1;exitX=0;exitY=0.5;exitDx=0;exitDy=0;startArrow=ERmandOne;startFill=0;endArrow=ERzeroToOne;endFill=0;" parent="1" source="R-5eVReeRhAWZTMctB-V-81" edge="1">
          <mxGeometry relative="1" as="geometry">
            <mxPoint x="1080" y="-240" as="targetPoint" />
            <Array as="points">
              <mxPoint x="1080" y="-240" />
            </Array>
          </mxGeometry>
        </mxCell>
        <mxCell id="R-5eVReeRhAWZTMctB-V-81" value="&amp;nbsp;Financial Transaction" style="swimlane;childLayout=stackLayout;horizontal=1;startSize=50;horizontalStack=0;rounded=0;fontSize=14;fontStyle=0;strokeWidth=2;resizeParent=0;resizeLast=1;shadow=0;dashed=0;align=center;arcSize=4;whiteSpace=wrap;html=1;" parent="1" vertex="1">
          <mxGeometry x="1360" y="-320" width="160" height="160" as="geometry" />
        </mxCell>
        <mxCell id="R-5eVReeRhAWZTMctB-V-82" value="&lt;u&gt;&lt;b&gt;TransactionID&lt;br&gt;&lt;/b&gt;&lt;/u&gt;TransactionType&lt;br&gt;TransactionDate&lt;br&gt;Amount" style="align=left;strokeColor=none;fillColor=none;spacingLeft=4;fontSize=12;verticalAlign=top;resizable=0;rotatable=0;part=1;html=1;" parent="R-5eVReeRhAWZTMctB-V-81" vertex="1">
          <mxGeometry y="50" width="160" height="110" as="geometry" />
        </mxCell>
        <mxCell id="R-5eVReeRhAWZTMctB-V-84" style="edgeStyle=orthogonalEdgeStyle;rounded=0;orthogonalLoop=1;jettySize=auto;html=1;exitX=0.5;exitY=1;exitDx=0;exitDy=0;entryX=0.25;entryY=1;entryDx=0;entryDy=0;startArrow=ERmandOne;startFill=0;endArrow=ERzeroToMany;endFill=0;" parent="1" source="R-5eVReeRhAWZTMctB-V-75" target="R-5eVReeRhAWZTMctB-V-79" edge="1">
          <mxGeometry relative="1" as="geometry">
            <Array as="points">
              <mxPoint x="480" y="-120" />
              <mxPoint x="690" y="-120" />
            </Array>
          </mxGeometry>
        </mxCell>
        <mxCell id="R-5eVReeRhAWZTMctB-V-115" value="Made to" style="edgeLabel;html=1;align=center;verticalAlign=middle;resizable=0;points=[];" parent="R-5eVReeRhAWZTMctB-V-84" vertex="1" connectable="0">
          <mxGeometry x="-0.6173" relative="1" as="geometry">
            <mxPoint y="11" as="offset" />
          </mxGeometry>
        </mxCell>
        <mxCell id="R-5eVReeRhAWZTMctB-V-116" value="Is Made By" style="edgeLabel;html=1;align=center;verticalAlign=middle;resizable=0;points=[];" parent="R-5eVReeRhAWZTMctB-V-84" vertex="1" connectable="0">
          <mxGeometry x="0.4227" y="-1" relative="1" as="geometry">
            <mxPoint x="34" as="offset" />
          </mxGeometry>
        </mxCell>
        <mxCell id="R-5eVReeRhAWZTMctB-V-86" style="edgeStyle=orthogonalEdgeStyle;rounded=0;orthogonalLoop=1;jettySize=auto;html=1;exitX=1;exitY=0.5;exitDx=0;exitDy=0;entryX=0.5;entryY=0;entryDx=0;entryDy=0;endArrow=ERzeroToMany;endFill=0;startArrow=ERmandOne;startFill=0;" parent="1" source="R-5eVReeRhAWZTMctB-V-11" target="R-5eVReeRhAWZTMctB-V-57" edge="1">
          <mxGeometry relative="1" as="geometry" />
        </mxCell>
        <mxCell id="z7p7CJNXkUByptRr078z-20" value="Gives" style="edgeLabel;html=1;align=center;verticalAlign=middle;resizable=0;points=[];" parent="R-5eVReeRhAWZTMctB-V-86" vertex="1" connectable="0">
          <mxGeometry x="0.6462" y="-1" relative="1" as="geometry">
            <mxPoint as="offset" />
          </mxGeometry>
        </mxCell>
        <mxCell id="z7p7CJNXkUByptRr078z-21" value="Is Given By" style="edgeLabel;html=1;align=center;verticalAlign=middle;resizable=0;points=[];" parent="R-5eVReeRhAWZTMctB-V-86" vertex="1" connectable="0">
          <mxGeometry x="-0.6679" y="-1" relative="1" as="geometry">
            <mxPoint x="24" as="offset" />
          </mxGeometry>
        </mxCell>
        <mxCell id="R-5eVReeRhAWZTMctB-V-89" style="edgeStyle=orthogonalEdgeStyle;rounded=0;orthogonalLoop=1;jettySize=auto;html=1;entryX=0.5;entryY=1;entryDx=0;entryDy=0;startArrow=ERzeroToOne;startFill=0;endArrow=ERmandOne;endFill=0;" parent="1" target="R-5eVReeRhAWZTMctB-V-82" edge="1">
          <mxGeometry relative="1" as="geometry">
            <Array as="points">
              <mxPoint x="800" y="-120" />
              <mxPoint x="1440" y="-120" />
            </Array>
            <mxPoint x="800" y="-190" as="sourcePoint" />
          </mxGeometry>
        </mxCell>
        <mxCell id="R-5eVReeRhAWZTMctB-V-117" value="Created" style="edgeLabel;html=1;align=center;verticalAlign=middle;resizable=0;points=[];" parent="R-5eVReeRhAWZTMctB-V-89" vertex="1" connectable="0">
          <mxGeometry x="0.5975" relative="1" as="geometry">
            <mxPoint x="94" as="offset" />
          </mxGeometry>
        </mxCell>
        <mxCell id="R-5eVReeRhAWZTMctB-V-118" value="Is Created From" style="edgeLabel;html=1;align=center;verticalAlign=middle;resizable=0;points=[];" parent="R-5eVReeRhAWZTMctB-V-89" vertex="1" connectable="0">
          <mxGeometry x="-0.7442" y="2" relative="1" as="geometry">
            <mxPoint x="-10" as="offset" />
          </mxGeometry>
        </mxCell>
        <mxCell id="z7p7CJNXkUByptRr078z-11" value="Is Created From" style="edgeLabel;html=1;align=center;verticalAlign=middle;resizable=0;points=[];" parent="R-5eVReeRhAWZTMctB-V-89" vertex="1" connectable="0">
          <mxGeometry x="-0.7442" y="2" relative="1" as="geometry">
            <mxPoint x="330" y="-118" as="offset" />
          </mxGeometry>
        </mxCell>
        <mxCell id="z7p7CJNXkUByptRr078z-12" value="Created" style="edgeLabel;html=1;align=center;verticalAlign=middle;resizable=0;points=[];" parent="R-5eVReeRhAWZTMctB-V-89" vertex="1" connectable="0">
          <mxGeometry x="0.5975" relative="1" as="geometry">
            <mxPoint x="-26" y="-120" as="offset" />
          </mxGeometry>
        </mxCell>
        <mxCell id="R-5eVReeRhAWZTMctB-V-91" style="edgeStyle=orthogonalEdgeStyle;rounded=0;orthogonalLoop=1;jettySize=auto;html=1;exitX=0;exitY=0;exitDx=0;exitDy=0;endArrow=ERoneToMany;endFill=0;startArrow=ERzeroToOne;startFill=0;entryX=0.75;entryY=1;entryDx=0;entryDy=0;" parent="1" source="R-5eVReeRhAWZTMctB-V-10" target="R-5eVReeRhAWZTMctB-V-7" edge="1">
          <mxGeometry relative="1" as="geometry">
            <Array as="points">
              <mxPoint x="720" y="-535" />
            </Array>
            <mxPoint x="705" y="-640" as="targetPoint" />
          </mxGeometry>
        </mxCell>
        <mxCell id="z7p7CJNXkUByptRr078z-24" value="Trains" style="edgeLabel;html=1;align=center;verticalAlign=middle;resizable=0;points=[];" parent="R-5eVReeRhAWZTMctB-V-91" vertex="1" connectable="0">
          <mxGeometry x="0.7" y="3" relative="1" as="geometry">
            <mxPoint y="-1" as="offset" />
          </mxGeometry>
        </mxCell>
        <mxCell id="z7p7CJNXkUByptRr078z-25" value="Is Trained By" style="edgeLabel;html=1;align=center;verticalAlign=middle;resizable=0;points=[];" parent="R-5eVReeRhAWZTMctB-V-91" vertex="1" connectable="0">
          <mxGeometry x="-0.4538" y="-2" relative="1" as="geometry">
            <mxPoint x="-5" y="-18" as="offset" />
          </mxGeometry>
        </mxCell>
        <mxCell id="R-5eVReeRhAWZTMctB-V-92" style="edgeStyle=orthogonalEdgeStyle;rounded=0;orthogonalLoop=1;jettySize=auto;html=1;entryX=0;entryY=0;entryDx=0;entryDy=0;exitX=0.5;exitY=1;exitDx=0;exitDy=0;startArrow=ERmandOne;startFill=0;endArrow=ERzeroToMany;endFill=0;" parent="1" source="R-5eVReeRhAWZTMctB-V-7" target="R-5eVReeRhAWZTMctB-V-55" edge="1">
          <mxGeometry relative="1" as="geometry">
            <mxPoint x="630" y="-600" as="sourcePoint" />
            <Array as="points">
              <mxPoint x="680" y="-430" />
            </Array>
          </mxGeometry>
        </mxCell>
        <mxCell id="z7p7CJNXkUByptRr078z-22" value="Attends" style="edgeLabel;html=1;align=center;verticalAlign=middle;resizable=0;points=[];" parent="R-5eVReeRhAWZTMctB-V-92" vertex="1" connectable="0">
          <mxGeometry x="0.6693" y="-1" relative="1" as="geometry">
            <mxPoint x="-32" y="-71" as="offset" />
          </mxGeometry>
        </mxCell>
        <mxCell id="R-5eVReeRhAWZTMctB-V-96" style="edgeStyle=orthogonalEdgeStyle;rounded=0;orthogonalLoop=1;jettySize=auto;html=1;exitX=0;exitY=0.75;exitDx=0;exitDy=0;entryX=0.5;entryY=0;entryDx=0;entryDy=0;startArrow=ERzeroToMany;startFill=0;endArrow=ERzeroToMany;endFill=0;" parent="1" source="R-5eVReeRhAWZTMctB-V-7" target="R-5eVReeRhAWZTMctB-V-61" edge="1">
          <mxGeometry relative="1" as="geometry">
            <mxPoint x="622.52" y="-639.9999999999999" as="sourcePoint" />
            <mxPoint x="617.52" y="-300" as="targetPoint" />
            <Array as="points">
              <mxPoint x="550" y="-657" />
              <mxPoint x="550" y="-660" />
              <mxPoint x="480" y="-660" />
            </Array>
          </mxGeometry>
        </mxCell>
        <mxCell id="R-5eVReeRhAWZTMctB-V-107" value="Is Worked By" style="edgeLabel;html=1;align=center;verticalAlign=middle;resizable=0;points=[];" parent="R-5eVReeRhAWZTMctB-V-96" vertex="1" connectable="0">
          <mxGeometry x="-0.6779" y="-1" relative="1" as="geometry">
            <mxPoint x="-28" as="offset" />
          </mxGeometry>
        </mxCell>
        <mxCell id="R-5eVReeRhAWZTMctB-V-108" value="Works" style="edgeLabel;html=1;align=center;verticalAlign=middle;resizable=0;points=[];" parent="R-5eVReeRhAWZTMctB-V-96" vertex="1" connectable="0">
          <mxGeometry x="0.6929" y="-2" relative="1" as="geometry">
            <mxPoint as="offset" />
          </mxGeometry>
        </mxCell>
        <mxCell id="R-5eVReeRhAWZTMctB-V-106" style="edgeStyle=orthogonalEdgeStyle;rounded=0;orthogonalLoop=1;jettySize=auto;html=1;exitX=0.5;exitY=0;exitDx=0;exitDy=0;startArrow=ERoneToMany;startFill=0;endArrow=ERoneToMany;endFill=0;entryX=0.5;entryY=1;entryDx=0;entryDy=0;" parent="1" source="R-5eVReeRhAWZTMctB-V-74" target="R-5eVReeRhAWZTMctB-V-62" edge="1">
          <mxGeometry relative="1" as="geometry">
            <mxPoint x="530" y="-241.66" as="targetPoint" />
          </mxGeometry>
        </mxCell>
        <mxCell id="R-5eVReeRhAWZTMctB-V-109" value="Is Used By" style="edgeLabel;html=1;align=center;verticalAlign=middle;resizable=0;points=[];" parent="R-5eVReeRhAWZTMctB-V-106" vertex="1" connectable="0">
          <mxGeometry x="0.4874" y="2" relative="1" as="geometry">
            <mxPoint x="-1" as="offset" />
          </mxGeometry>
        </mxCell>
        <mxCell id="R-5eVReeRhAWZTMctB-V-110" value="Uses" style="edgeLabel;html=1;align=center;verticalAlign=middle;resizable=0;points=[];" parent="R-5eVReeRhAWZTMctB-V-106" vertex="1" connectable="0">
          <mxGeometry x="-0.6535" y="1" relative="1" as="geometry">
            <mxPoint x="1" y="-10" as="offset" />
          </mxGeometry>
        </mxCell>
        <mxCell id="W-gK8q5gHZFt6oDhmHY_-7" style="edgeStyle=orthogonalEdgeStyle;rounded=0;orthogonalLoop=1;jettySize=auto;html=1;exitX=1;exitY=0;exitDx=0;exitDy=0;startArrow=ERoneToMany;startFill=0;endArrow=ERmandOne;endFill=0;entryX=0;entryY=0;entryDx=0;entryDy=0;" parent="1" source="R-5eVReeRhAWZTMctB-V-55" target="R-5eVReeRhAWZTMctB-V-58" edge="1">
          <mxGeometry relative="1" as="geometry">
            <mxPoint x="1200" y="-430" as="targetPoint" />
            <Array as="points">
              <mxPoint x="1080" y="-430" />
              <mxPoint x="1080" y="-470" />
            </Array>
          </mxGeometry>
        </mxCell>
        <mxCell id="z7p7CJNXkUByptRr078z-13" value="Occurs" style="edgeLabel;html=1;align=center;verticalAlign=middle;resizable=0;points=[];" parent="W-gK8q5gHZFt6oDhmHY_-7" vertex="1" connectable="0">
          <mxGeometry x="0.5729" y="-2" relative="1" as="geometry">
            <mxPoint x="-60" y="18" as="offset" />
          </mxGeometry>
        </mxCell>
        <mxCell id="W-gK8q5gHZFt6oDhmHY_-8" value="Sale" style="swimlane;childLayout=stackLayout;horizontal=1;startSize=50;horizontalStack=0;rounded=1;fontSize=14;fontStyle=0;strokeWidth=2;resizeParent=0;resizeLast=1;shadow=0;dashed=0;align=center;arcSize=4;whiteSpace=wrap;html=1;" parent="1" vertex="1">
          <mxGeometry x="1040" y="-960" width="160" height="120" as="geometry" />
        </mxCell>
        <mxCell id="W-gK8q5gHZFt6oDhmHY_-9" value="&lt;div&gt;&lt;b&gt;&lt;u&gt;SaleID (Primary Key)&lt;/u&gt;&lt;/b&gt;&lt;/div&gt;&lt;div&gt;Saledate&lt;/div&gt;&lt;div&gt;TotalAmount&lt;/div&gt;" style="align=left;strokeColor=none;fillColor=none;spacingLeft=4;fontSize=12;verticalAlign=top;resizable=0;rotatable=0;part=1;html=1;" parent="W-gK8q5gHZFt6oDhmHY_-8" vertex="1">
          <mxGeometry y="50" width="160" height="70" as="geometry" />
        </mxCell>
        <mxCell id="W-gK8q5gHZFt6oDhmHY_-10" value="Product" style="swimlane;childLayout=stackLayout;horizontal=1;startSize=50;horizontalStack=0;rounded=0;fontSize=14;fontStyle=0;strokeWidth=2;resizeParent=0;resizeLast=1;shadow=0;dashed=0;align=center;arcSize=4;whiteSpace=wrap;html=1;" parent="1" vertex="1">
          <mxGeometry x="1240" y="-1080" width="160" height="130" as="geometry" />
        </mxCell>
        <mxCell id="W-gK8q5gHZFt6oDhmHY_-11" value="&lt;div&gt;&lt;b&gt;&lt;u&gt;ProductType (Primary Key)&lt;/u&gt;&lt;/b&gt;&lt;/div&gt;&lt;div&gt;&lt;b&gt;&lt;u&gt;Brand (Primary Key)&lt;/u&gt;&lt;/b&gt;&lt;/div&gt;&lt;div&gt;Price&lt;/div&gt;&lt;div&gt;QuantityInStock&lt;/div&gt;" style="align=left;strokeColor=none;fillColor=none;spacingLeft=4;fontSize=12;verticalAlign=top;resizable=0;rotatable=0;part=1;html=1;" parent="W-gK8q5gHZFt6oDhmHY_-10" vertex="1">
          <mxGeometry y="50" width="160" height="80" as="geometry" />
        </mxCell>
        <mxCell id="W-gK8q5gHZFt6oDhmHY_-12" style="edgeStyle=orthogonalEdgeStyle;rounded=0;orthogonalLoop=1;jettySize=auto;html=1;entryX=0;entryY=0.5;entryDx=0;entryDy=0;endArrow=ERzeroToMany;endFill=0;startArrow=ERmandOne;startFill=0;exitX=1;exitY=0.5;exitDx=0;exitDy=0;" parent="1" source="R-5eVReeRhAWZTMctB-V-42" target="W-gK8q5gHZFt6oDhmHY_-9" edge="1">
          <mxGeometry relative="1" as="geometry">
            <mxPoint x="910" y="-940" as="sourcePoint" />
          </mxGeometry>
        </mxCell>
        <mxCell id="z7p7CJNXkUByptRr078z-1" value="Is Made By" style="edgeLabel;html=1;align=center;verticalAlign=middle;resizable=0;points=[];" parent="W-gK8q5gHZFt6oDhmHY_-12" vertex="1" connectable="0">
          <mxGeometry x="-0.7495" y="-2" relative="1" as="geometry">
            <mxPoint x="29" as="offset" />
          </mxGeometry>
        </mxCell>
        <mxCell id="z7p7CJNXkUByptRr078z-3" value="Made" style="edgeLabel;html=1;align=center;verticalAlign=middle;resizable=0;points=[];" parent="W-gK8q5gHZFt6oDhmHY_-12" vertex="1" connectable="0">
          <mxGeometry x="0.4323" relative="1" as="geometry">
            <mxPoint x="24" as="offset" />
          </mxGeometry>
        </mxCell>
        <mxCell id="W-gK8q5gHZFt6oDhmHY_-13" style="edgeStyle=orthogonalEdgeStyle;rounded=0;orthogonalLoop=1;jettySize=auto;html=1;exitX=1;exitY=0.5;exitDx=0;exitDy=0;entryX=0.5;entryY=1;entryDx=0;entryDy=0;endArrow=ERoneToMany;endFill=0;startArrow=ERzeroToMany;startFill=0;" parent="1" source="W-gK8q5gHZFt6oDhmHY_-9" target="W-gK8q5gHZFt6oDhmHY_-11" edge="1">
          <mxGeometry relative="1" as="geometry" />
        </mxCell>
        <mxCell id="z7p7CJNXkUByptRr078z-5" value="Includes" style="edgeLabel;html=1;align=center;verticalAlign=middle;resizable=0;points=[];" parent="W-gK8q5gHZFt6oDhmHY_-13" vertex="1" connectable="0">
          <mxGeometry x="0.5829" y="1" relative="1" as="geometry">
            <mxPoint as="offset" />
          </mxGeometry>
        </mxCell>
        <mxCell id="z7p7CJNXkUByptRr078z-6" value="Is Included By" style="edgeLabel;html=1;align=center;verticalAlign=middle;resizable=0;points=[];" parent="W-gK8q5gHZFt6oDhmHY_-13" vertex="1" connectable="0">
          <mxGeometry x="-0.6821" y="1" relative="1" as="geometry">
            <mxPoint x="24" as="offset" />
          </mxGeometry>
        </mxCell>
        <mxCell id="W-gK8q5gHZFt6oDhmHY_-14" style="edgeStyle=orthogonalEdgeStyle;rounded=0;orthogonalLoop=1;jettySize=auto;html=1;exitX=0.5;exitY=1;exitDx=0;exitDy=0;endArrow=ERmandOne;endFill=0;startArrow=ERzeroToOne;startFill=0;" parent="1" source="W-gK8q5gHZFt6oDhmHY_-9" edge="1">
          <mxGeometry relative="1" as="geometry">
            <Array as="points">
              <mxPoint x="1120" y="-780" />
              <mxPoint x="1520" y="-780" />
            </Array>
            <mxPoint x="1520" y="-320" as="targetPoint" />
          </mxGeometry>
        </mxCell>
        <mxCell id="z7p7CJNXkUByptRr078z-18" value="Is Effected From" style="edgeLabel;html=1;align=center;verticalAlign=middle;resizable=0;points=[];" parent="W-gK8q5gHZFt6oDhmHY_-14" vertex="1" connectable="0">
          <mxGeometry x="-0.8958" relative="1" as="geometry">
            <mxPoint as="offset" />
          </mxGeometry>
        </mxCell>
        <mxCell id="z7p7CJNXkUByptRr078z-19" value="Effects" style="edgeLabel;html=1;align=center;verticalAlign=middle;resizable=0;points=[];" parent="W-gK8q5gHZFt6oDhmHY_-14" vertex="1" connectable="0">
          <mxGeometry x="0.9042" y="1" relative="1" as="geometry">
            <mxPoint as="offset" />
          </mxGeometry>
        </mxCell>
        <mxCell id="LRtdsmTb6GKmD8mY7vvt-3" style="edgeStyle=orthogonalEdgeStyle;rounded=0;orthogonalLoop=1;jettySize=auto;html=1;endArrow=ERzeroToMany;endFill=0;startArrow=ERmandOne;startFill=0;entryX=0;entryY=0.25;entryDx=0;entryDy=0;exitX=0.75;exitY=0;exitDx=0;exitDy=0;" parent="1" source="R-5eVReeRhAWZTMctB-V-37" target="R-5eVReeRhAWZTMctB-V-7" edge="1">
          <mxGeometry relative="1" as="geometry">
            <mxPoint x="270" y="-510" as="sourcePoint" />
            <mxPoint x="580" y="-690" as="targetPoint" />
            <Array as="points">
              <mxPoint x="320" y="-692" />
            </Array>
          </mxGeometry>
        </mxCell>
        <mxCell id="z7p7CJNXkUByptRr078z-7" value="Has" style="edgeLabel;html=1;align=center;verticalAlign=middle;resizable=0;points=[];" parent="LRtdsmTb6GKmD8mY7vvt-3" vertex="1" connectable="0">
          <mxGeometry x="-0.8665" y="-2" relative="1" as="geometry">
            <mxPoint x="18" as="offset" />
          </mxGeometry>
        </mxCell>
        <mxCell id="z7p7CJNXkUByptRr078z-8" value="Is Selected From" style="edgeLabel;html=1;align=center;verticalAlign=middle;resizable=0;points=[];" parent="LRtdsmTb6GKmD8mY7vvt-3" vertex="1" connectable="0">
          <mxGeometry x="0.7065" relative="1" as="geometry">
            <mxPoint x="-26" as="offset" />
          </mxGeometry>
        </mxCell>
        <mxCell id="xoYiwrnEaypF7YbTbB9d-1" value="Salary Payment" style="swimlane;childLayout=stackLayout;horizontal=1;startSize=50;horizontalStack=0;rounded=0;fontSize=14;fontStyle=0;strokeWidth=2;resizeParent=0;resizeLast=1;shadow=0;dashed=0;align=center;arcSize=4;whiteSpace=wrap;html=1;" parent="1" vertex="1">
          <mxGeometry x="1320" y="-720" width="160" height="120" as="geometry" />
        </mxCell>
        <mxCell id="xoYiwrnEaypF7YbTbB9d-2" value="&lt;div style=&quot;border-color: var(--border-color);&quot;&gt;&lt;b style=&quot;border-color: var(--border-color);&quot;&gt;&lt;u style=&quot;border-color: var(--border-color);&quot;&gt;PaymentID (Primary Key)&lt;/u&gt;&lt;/b&gt;&lt;/div&gt;&lt;div style=&quot;border-color: var(--border-color);&quot;&gt;&lt;div style=&quot;border-color: var(--border-color);&quot;&gt;PaymentAmount&lt;/div&gt;&lt;/div&gt;&lt;div style=&quot;border-color: var(--border-color);&quot;&gt;PaymentDate&lt;/div&gt;" style="align=left;strokeColor=none;fillColor=none;spacingLeft=4;fontSize=12;verticalAlign=top;resizable=0;rotatable=0;part=1;html=1;" parent="xoYiwrnEaypF7YbTbB9d-1" vertex="1">
          <mxGeometry y="50" width="160" height="70" as="geometry" />
        </mxCell>
        <mxCell id="xoYiwrnEaypF7YbTbB9d-5" style="edgeStyle=orthogonalEdgeStyle;rounded=0;orthogonalLoop=1;jettySize=auto;html=1;exitX=0.75;exitY=1;exitDx=0;exitDy=0;entryX=0.5;entryY=0;entryDx=0;entryDy=0;startArrow=ERzeroToOne;startFill=0;endArrow=ERmandOne;endFill=0;" parent="1" source="xoYiwrnEaypF7YbTbB9d-2" target="R-5eVReeRhAWZTMctB-V-81" edge="1">
          <mxGeometry relative="1" as="geometry" />
        </mxCell>
      </root>
    </mxGraphModel>
  </diagram>
</mxfile>
